Coordinates
version=1
nRows=6
nColumns=36
inDegrees=yes

Units are S.I. units (second, meters, Newtons, ...)
If the header above contains a line with 'inDegrees', this indicates whether rotational values are in degrees (yes) or radians (no).

endheader
time	pelvis_tilt	pelvis_list	pelvis_rotation	pelvis_tx	pelvis_ty	pelvis_tz	hip_flexion_r	hip_adduction_r	hip_rotation_r	knee_angle_r	knee_angle_r_beta	ankle_angle_r	subtalar_angle_r	mtp_angle_r	hip_flexion_l	hip_adduction_l	hip_rotation_l	knee_angle_l	knee_angle_l_beta	ankle_angle_l	subtalar_angle_l	mtp_angle_l	lumbar_extension	lumbar_bending	lumbar_rotation	arm_flex_r	arm_add_r	arm_rot_r	elbow_flex_r	pro_sup_r	arm_flex_l	arm_add_l	arm_rot_l	elbow_flex_l	pro_sup_l
      5.86666670	    -14.27660264	      2.64105740	      3.71217993	      0.88309304	      0.71625633	      0.03803015	     64.47021655	    -16.09126793	      2.66613345	     83.05671650	      1.44961317	     29.41351793	    -18.72676003	     -7.49999987	     59.56491645	    -12.08721724	     -0.07532185	     71.63747647	      1.25030983	     13.64442975	    -11.14751505	     -7.49999987	    -18.88666588	     -4.88632455	      2.03524534	     27.48627076	     -9.58371427	     21.71657227	    101.97301500	     86.85198434	     17.86119249	     -3.28506251	     30.60062249	     96.75747163	     60.39848556
      5.88333330	    -14.16856928	      2.46174537	      3.34994652	      0.88196491	      0.72856698	      0.04188248	     62.47864526	    -15.40744436	      1.96136724	     79.95465320	      1.39547195	     28.75023921	    -18.24586655	     -7.49999987	     57.54201308	    -12.35996964	     -0.56706321	     68.52260457	      1.19594506	     12.42442862	    -10.69686093	     -7.49999987	    -17.68886472	     -4.99931440	      2.43232662	     26.59131336	     -9.91565194	     21.95587625	    101.24137652	     87.22675956	     16.62001365	     -3.74852460	     30.60519389	     95.56059827	     60.43980925
      5.90000000	    -13.94653671	      2.22388435	      3.08602973	      0.88985571	      0.74099508	      0.04104719	     59.96450283	    -14.96055205	      1.18044207	     76.59624133	      1.33685661	     27.89911252	    -18.15105351	     -7.49999987	     55.20226920	    -12.48690977	     -0.79395689	     65.29349402	      1.13958645	     11.19760959	    -10.48462071	     -7.49999987	    -16.15211608	     -4.96903755	      2.96252216	     25.26557163	    -10.49979558	     22.08424109	    100.02231716	     87.79137531	     14.54198932	     -3.71204097	     30.39491972	     92.67146330	     60.49697986
      5.91666670	    -14.08088126	      1.67656440	      2.91781178	      0.88830953	      0.75638218	      0.04390376	     57.44893539	    -14.07253809	     -0.00512963	     72.56426460	      1.26648534	     26.71516204	    -18.38868568	     -7.49999987	     53.37374648	    -12.87538416	     -1.08088606	     61.73989774	      1.07756450	      9.24456147	    -10.46181741	     -7.49999987	    -14.40433582	     -4.74228517	      3.19608473	     23.67733307	    -10.81015957	     22.13420822	     98.96710620	     86.82832833	     12.86926698	     -3.81359358	     30.49727879	     89.81938898	     60.56336907
      5.93333330	    -14.17674627	      1.21165624	      2.73865054	      0.89497069	      0.76877079	      0.04289295	     55.07426748	    -13.46327999	     -0.99968730	     68.88944452	      1.20234763	     24.94903437	    -18.68419199	     -7.49999987	     51.20891209	    -13.16804870	     -1.41242290	     58.13265661	      1.01460626	      8.02803673	     -9.82346260	     -7.49999987	    -12.13574906	     -4.49681562	      3.53359253	     21.45253906	    -11.33423540	     21.69509934	     98.42907260	     87.44465525	     11.04176093	     -3.66811228	     30.50363310	     86.77971795	     60.63760543
      5.95000000	    -14.34077821	      0.63252454	      2.56756465	      0.90180098	      0.78430524	      0.04315509	     52.03283716	    -12.58914547	     -2.09329898	     64.12540395	      1.11919943	     23.84774640	    -18.66810622	     -7.49999987	     48.73285582	    -13.48840115	     -1.89030495	     53.94086231	      0.94144565	      6.94962771	     -9.47870036	     -7.49999987	     -9.73593280	     -4.03575698	      3.79952897	     19.07373607	    -11.87311287	     21.13629072	     97.54675922	     87.66640532	      9.00920110	     -3.31036432	     30.64930071	     82.68223816	     60.60298137
